<svg width="10" height="9" viewBox="0 0 10 9" fill="none" xmlns="http://www.w3.org/2000/svg">
<path d="M5.00313 0.422683C5.06478 0.232957 5.33319 0.232958 5.39483 0.422683L6.26237 3.09268C6.28994 3.17753 6.36901 3.23497 6.45822 3.23497H9.26562C9.46511 3.23497 9.54805 3.49025 9.38666 3.6075L7.11543 5.25765C7.04325 5.31009 7.01305 5.40304 7.04062 5.48789L7.90815 8.15788C7.9698 8.34761 7.75265 8.50538 7.59126 8.38812L5.32003 6.73797C5.24785 6.68553 5.15012 6.68553 5.07794 6.73797L2.80671 8.38812C2.64532 8.50538 2.42817 8.34761 2.48981 8.15788L3.35735 5.48789C3.38492 5.40304 3.35472 5.31009 3.28254 5.25765L1.01131 3.6075C0.849916 3.49025 0.93286 3.23497 1.13235 3.23497H3.93975C4.02896 3.23497 4.10803 3.17753 4.1356 3.09268L5.00313 0.422683Z" fill="#F1CC4A"/>
</svg>
